<?xml version="1.0" standalone="no"?>
<!DOCTYPE svg PUBLIC "-//W3C//DTD SVG 20010904//EN"
 "http://www.w3.org/TR/2001/REC-SVG-20010904/DTD/svg10.dtd">
<svg version="1.0" xmlns="http://www.w3.org/2000/svg"
 width="625.000000pt" height="625.000000pt" viewBox="0 0 625.000000 625.000000"
 preserveAspectRatio="xMidYMid meet">
<metadata>
Created by potrace 1.11, written by Peter Selinger 2001-2013
</metadata>
<g transform="translate(0.000000,625.000000) scale(0.100000,-0.100000)"
fill="#000000" stroke="none">
<path d="M0 3125 l0 -3125 3125 0 3125 0 0 3125 0 3125 -3125 0 -3125 0 0
-3125z m2730 440 l5 -420 20 27 c11 15 180 205 375 422 l355 395 133 1 c72 0
132 -3 132 -6 0 -3 -89 -105 -197 -227 -420 -470 -463 -519 -463 -525 0 -4
160 -217 355 -474 195 -256 355 -469 355 -472 0 -3 -60 -6 -132 -5 l-133 0
-80 107 c-44 59 -179 237 -300 395 l-219 288 -103 -103 -103 -102 -2 -291 -3
-290 -112 -3 -113 -3 0 856 0 856 113 -3 112 -3 5 -420z"/>
</g>
</svg>
